<svg width="139" height="139" viewBox="0 0 139 139" fill="none" xmlns="http://www.w3.org/2000/svg">
<path d="M117.713 133.838C120.279 133.838 122.74 132.819 124.554 131.005C126.369 129.19 127.388 126.729 127.388 124.163C127.388 121.597 126.369 119.136 124.554 117.322C122.74 115.508 120.279 114.488 117.713 114.488C115.147 114.488 112.686 115.508 110.872 117.322C109.057 119.136 108.038 121.597 108.038 124.163C108.038 126.729 109.057 129.19 110.872 131.005C112.686 132.819 115.147 133.838 117.713 133.838ZM53.2131 133.838C55.7791 133.838 58.2399 132.819 60.0543 131.005C61.8688 129.19 62.8881 126.729 62.8881 124.163C62.8881 121.597 61.8688 119.136 60.0543 117.322C58.2399 115.508 55.7791 114.488 53.2131 114.488C50.6471 114.488 48.1862 115.508 46.3718 117.322C44.5574 119.136 43.5381 121.597 43.5381 124.163C43.5381 126.729 44.5574 129.19 46.3718 131.005C48.1862 132.819 50.6471 133.838 53.2131 133.838Z" fill="#242424" stroke="black" stroke-width="9.675" stroke-linecap="round" stroke-linejoin="round"/>
<path d="M98.3629 17.7379H133.838L120.938 88.6879M98.3629 17.7379L91.9129 88.6879M98.3629 17.7379H61.2754M120.938 88.6879H91.9129M120.938 88.6879H25.6714C14.1646 88.6879 8.06289 93.7253 8.06289 101.588C8.06289 109.45 14.1646 114.488 25.6714 114.488H117.713M91.9129 88.6879H66.1129M61.2754 17.7379H24.1879M61.2754 17.7379L66.1129 88.6879M66.1129 88.6879H37.0879L24.1879 17.7379M24.1879 17.7379C23.1107 13.4357 17.7379 4.83789 4.83789 4.83789" stroke="#242424" stroke-width="9.675" stroke-linecap="round" stroke-linejoin="round"/>
</svg>
