<svg width="22" height="17" viewBox="0 0 22 17" fill="none" xmlns="http://www.w3.org/2000/svg">
<path d="M18.1184 9.05981V7.85809H22V9.05981H18.1184ZM19.4223 16.8254L16.3158 14.4952L17.0645 13.5435L20.171 15.8724L19.4223 16.8254ZM16.972 3.28191L16.2233 2.33015L19.3298 0L20.0784 0.952969L16.972 3.28191ZM3.18938 15.6236V11.0475H1.94199C1.40442 11.0475 0.946162 10.8584 0.567217 10.4803C0.188273 10.1021 -0.000798615 9.64425 2.53529e-06 9.10668V7.81242C2.53529e-06 7.27485 0.189074 6.81659 0.567217 6.43765C0.945361 6.0587 1.40322 5.86963 1.94079 5.87043H6.42443L11.1857 3.05118V13.8667L6.42443 11.0475H4.39111V15.6236H3.18938ZM9.98394 11.7264V5.19146L6.76212 7.07216H1.94079C1.75653 7.07216 1.58708 7.14947 1.43246 7.30409C1.27784 7.45871 1.20093 7.62816 1.20173 7.81242V9.10668C1.20173 9.29094 1.27864 9.46039 1.43246 9.61501C1.58628 9.76963 1.75572 9.84654 1.94079 9.84574H6.76212L9.98394 11.7264ZM13.3115 11.9307V4.98837C13.7137 5.3609 14.0378 5.8504 14.2837 6.45687C14.5297 7.06334 14.6522 7.7307 14.6514 8.45895C14.6506 9.18719 14.5281 9.85455 14.2837 10.461C14.0394 11.0675 13.7153 11.5582 13.3115 11.9307Z" fill="black"/>
</svg>
