<svg width="27" height="27" viewBox="0 0 27 27" fill="none" xmlns="http://www.w3.org/2000/svg">
<mask id="path-1-inside-1_1809_25" fill="white">
<path fill-rule="evenodd" clip-rule="evenodd" d="M8.5371 1.37905C8.92324 0.565411 9.75481 0 10.7188 0H16.235C17.1975 0 18.0291 0.565411 18.4166 1.37905C19.3585 1.38733 20.0936 1.43008 20.75 1.68658C21.5336 1.9931 22.2151 2.51403 22.7165 3.18975C23.2226 3.86962 23.4598 4.74394 23.7867 5.94509L23.8377 6.13264L24.6513 9.12105C25.1938 9.39476 25.6694 9.78462 26.0442 10.2629C26.9019 11.362 27.0536 12.6707 26.9019 14.1711C26.753 15.6274 26.2952 17.4616 25.7215 19.7577L25.6842 19.9025C25.3215 21.3546 25.0264 22.5337 24.6775 23.4535C24.3107 24.4134 23.8473 25.1994 23.082 25.7965C22.318 26.3937 21.4423 26.6516 20.4232 26.7757C19.4454 26.8915 18.2305 26.8915 16.7342 26.8915H10.2195C8.72327 26.8915 7.50695 26.8915 6.53058 26.7743C5.51008 26.6529 4.63576 26.3937 3.87039 25.7952C3.1064 25.1994 2.64303 24.4134 2.27621 23.4535C1.92593 22.5337 1.63219 21.3546 1.2695 19.9025L1.23226 19.7577C0.658579 17.4616 0.199355 15.6274 0.0517965 14.1725C-0.0998992 12.6694 0.0517963 11.362 0.908187 10.2629C1.29846 9.76369 1.76596 9.3941 2.30103 9.12105L3.11467 6.13264L3.16707 5.94509C3.49391 4.74394 3.73111 3.86962 4.23722 3.18837C4.73882 2.51316 5.4203 1.99273 6.20375 1.68658C6.86018 1.43008 7.59383 1.38595 8.5371 1.37905ZM8.53848 3.45177C7.62555 3.46142 7.2601 3.4959 6.95671 3.61449C6.53467 3.77954 6.16763 4.06008 5.8976 4.424C5.65488 4.75083 5.51146 5.2073 5.11154 6.67875L4.62335 8.466C6.05481 8.27431 7.90274 8.27431 10.1975 8.27431H16.7549C19.051 8.27431 20.8989 8.27431 22.329 8.466L21.8422 6.67737C21.4409 5.20592 21.2988 4.74945 21.0561 4.42262C20.7861 4.0587 20.4191 3.77816 19.997 3.61312C19.6936 3.49452 19.3268 3.46004 18.4139 3.45039C18.2179 3.86226 17.9092 4.21014 17.5235 4.45373C17.1379 4.69732 16.6911 4.82663 16.235 4.82668H10.7188C10.2626 4.82663 9.81586 4.69732 9.43022 4.45373C9.04458 4.21014 8.73587 3.86226 8.53986 3.45039M10.7188 2.06858C10.6273 2.06858 10.5396 2.1049 10.475 2.16956C10.4103 2.23421 10.374 2.3219 10.374 2.41334C10.374 2.50478 10.4103 2.59247 10.475 2.65713C10.5396 2.72178 10.6273 2.7581 10.7188 2.7581H16.235C16.3264 2.7581 16.4141 2.72178 16.4788 2.65713C16.5434 2.59247 16.5797 2.50478 16.5797 2.41334C16.5797 2.3219 16.5434 2.23421 16.4788 2.16956C16.4141 2.1049 16.3264 2.06858 16.235 2.06858H10.7188ZM4.78884 10.5304C3.5339 10.7125 2.92574 11.0434 2.54099 11.5371C2.15485 12.0295 1.98247 12.6983 2.11072 13.9615C2.24173 15.2523 2.66234 16.9403 3.26085 19.3398C3.64423 20.8678 3.909 21.9269 4.2124 22.7185C4.502 23.4825 4.78746 23.8866 5.14601 24.1665C5.50319 24.4451 5.96379 24.623 6.77743 24.7209C7.61865 24.8216 8.70811 24.8229 10.2857 24.8229H16.6707C18.247 24.8229 19.3392 24.8216 20.1791 24.7209C20.9927 24.6244 21.4533 24.4451 21.8105 24.1665C22.169 23.8866 22.4531 23.4825 22.7455 22.7185C23.0461 21.9269 23.3123 20.8678 23.6943 19.3398C24.2941 16.9403 24.7148 15.2523 24.8444 13.9615C24.974 12.6983 24.8003 12.0281 24.4155 11.5358C24.0307 11.0434 23.4226 10.7125 22.1663 10.5304C20.8838 10.3456 19.1434 10.3429 16.6707 10.3429H10.2857C7.8131 10.3429 6.07274 10.3456 4.79022 10.5304"/>
</mask>
<path fill-rule="evenodd" clip-rule="evenodd" d="M8.5371 1.37905C8.92324 0.565411 9.75481 0 10.7188 0H16.235C17.1975 0 18.0291 0.565411 18.4166 1.37905C19.3585 1.38733 20.0936 1.43008 20.75 1.68658C21.5336 1.9931 22.2151 2.51403 22.7165 3.18975C23.2226 3.86962 23.4598 4.74394 23.7867 5.94509L23.8377 6.13264L24.6513 9.12105C25.1938 9.39476 25.6694 9.78462 26.0442 10.2629C26.9019 11.362 27.0536 12.6707 26.9019 14.1711C26.753 15.6274 26.2952 17.4616 25.7215 19.7577L25.6842 19.9025C25.3215 21.3546 25.0264 22.5337 24.6775 23.4535C24.3107 24.4134 23.8473 25.1994 23.082 25.7965C22.318 26.3937 21.4423 26.6516 20.4232 26.7757C19.4454 26.8915 18.2305 26.8915 16.7342 26.8915H10.2195C8.72327 26.8915 7.50695 26.8915 6.53058 26.7743C5.51008 26.6529 4.63576 26.3937 3.87039 25.7952C3.1064 25.1994 2.64303 24.4134 2.27621 23.4535C1.92593 22.5337 1.63219 21.3546 1.2695 19.9025L1.23226 19.7577C0.658579 17.4616 0.199355 15.6274 0.0517965 14.1725C-0.0998992 12.6694 0.0517963 11.362 0.908187 10.2629C1.29846 9.76369 1.76596 9.3941 2.30103 9.12105L3.11467 6.13264L3.16707 5.94509C3.49391 4.74394 3.73111 3.86962 4.23722 3.18837C4.73882 2.51316 5.4203 1.99273 6.20375 1.68658C6.86018 1.43008 7.59383 1.38595 8.5371 1.37905ZM8.53848 3.45177C7.62555 3.46142 7.2601 3.4959 6.95671 3.61449C6.53467 3.77954 6.16763 4.06008 5.8976 4.424C5.65488 4.75083 5.51146 5.2073 5.11154 6.67875L4.62335 8.466C6.05481 8.27431 7.90274 8.27431 10.1975 8.27431H16.7549C19.051 8.27431 20.8989 8.27431 22.329 8.466L21.8422 6.67737C21.4409 5.20592 21.2988 4.74945 21.0561 4.42262C20.7861 4.0587 20.4191 3.77816 19.997 3.61312C19.6936 3.49452 19.3268 3.46004 18.4139 3.45039C18.2179 3.86226 17.9092 4.21014 17.5235 4.45373C17.1379 4.69732 16.6911 4.82663 16.235 4.82668H10.7188C10.2626 4.82663 9.81586 4.69732 9.43022 4.45373C9.04458 4.21014 8.73587 3.86226 8.53986 3.45039M10.7188 2.06858C10.6273 2.06858 10.5396 2.1049 10.475 2.16956C10.4103 2.23421 10.374 2.3219 10.374 2.41334C10.374 2.50478 10.4103 2.59247 10.475 2.65713C10.5396 2.72178 10.6273 2.7581 10.7188 2.7581H16.235C16.3264 2.7581 16.4141 2.72178 16.4788 2.65713C16.5434 2.59247 16.5797 2.50478 16.5797 2.41334C16.5797 2.3219 16.5434 2.23421 16.4788 2.16956C16.4141 2.1049 16.3264 2.06858 16.235 2.06858H10.7188ZM4.78884 10.5304C3.5339 10.7125 2.92574 11.0434 2.54099 11.5371C2.15485 12.0295 1.98247 12.6983 2.11072 13.9615C2.24173 15.2523 2.66234 16.9403 3.26085 19.3398C3.64423 20.8678 3.909 21.9269 4.2124 22.7185C4.502 23.4825 4.78746 23.8866 5.14601 24.1665C5.50319 24.4451 5.96379 24.623 6.77743 24.7209C7.61865 24.8216 8.70811 24.8229 10.2857 24.8229H16.6707C18.247 24.8229 19.3392 24.8216 20.1791 24.7209C20.9927 24.6244 21.4533 24.4451 21.8105 24.1665C22.169 23.8866 22.4531 23.4825 22.7455 22.7185C23.0461 21.9269 23.3123 20.8678 23.6943 19.3398C24.2941 16.9403 24.7148 15.2523 24.8444 13.9615C24.974 12.6983 24.8003 12.0281 24.4155 11.5358C24.0307 11.0434 23.4226 10.7125 22.1663 10.5304C20.8838 10.3456 19.1434 10.3429 16.6707 10.3429H10.2857C7.8131 10.3429 6.07274 10.3456 4.79022 10.5304" fill="black"/>
<path d="M8.5371 1.37905L8.54718 2.75807L9.41212 2.75174L9.78297 1.97031L8.5371 1.37905ZM18.4166 1.37905L17.1716 1.97203L17.5423 2.75048L18.4045 2.75805L18.4166 1.37905ZM20.75 1.68658L21.2524 0.402288L21.2519 0.40211L20.75 1.68658ZM22.7165 3.18975L21.6091 4.01153L21.6103 4.01322L22.7165 3.18975ZM23.7867 5.94509L25.1173 5.58306L25.1173 5.58302L23.7867 5.94509ZM23.8377 6.13264L22.507 6.49467L22.5071 6.49493L23.8377 6.13264ZM24.6513 9.12105L23.3207 9.48333L23.482 10.0757L24.0301 10.3523L24.6513 9.12105ZM26.0442 10.2629L27.1313 9.41445L27.1296 9.41231L26.0442 10.2629ZM26.9019 14.1711L28.2738 14.3114L28.274 14.3099L26.9019 14.1711ZM25.7215 19.7577L27.0571 20.1011L27.0594 20.092L25.7215 19.7577ZM25.6842 19.9025L24.3486 19.559L24.3463 19.5683L25.6842 19.9025ZM24.6775 23.4535L25.9657 23.9459L25.9669 23.9426L24.6775 23.4535ZM23.082 25.7965L22.2337 24.7093L22.2327 24.71L23.082 25.7965ZM20.4232 26.7757L20.5854 28.1452L20.5899 28.1446L20.4232 26.7757ZM6.53058 26.7743L6.69497 25.4051L6.69343 25.4049L6.53058 26.7743ZM3.87039 25.7952L4.71989 24.7088L4.7184 24.7077L3.87039 25.7952ZM2.27621 23.4535L0.987438 23.9443L0.988028 23.9459L2.27621 23.4535ZM1.2695 19.9025L2.60748 19.5683L2.6051 19.559L1.2695 19.9025ZM1.23226 19.7577L-0.105691 20.092L-0.103337 20.1011L1.23226 19.7577ZM0.0517965 14.1725L-1.32029 14.311L-1.32022 14.3117L0.0517965 14.1725ZM0.908187 10.2629L-0.178267 9.41355L-0.179635 9.4153L0.908187 10.2629ZM2.30103 9.12105L2.92787 10.3494L3.47135 10.0721L3.63164 9.48333L2.30103 9.12105ZM3.11467 6.13264L1.78646 5.76153L1.78406 5.77036L3.11467 6.13264ZM3.16707 5.94509L4.49529 6.31621L4.49775 6.30717L3.16707 5.94509ZM4.23722 3.18837L5.34421 4.01077L5.34423 4.01075L4.23722 3.18837ZM6.20375 1.68658L5.70183 0.40211L5.70182 0.402115L6.20375 1.68658ZM6.95671 3.61449L6.45462 2.33009L6.45444 2.33016L6.95671 3.61449ZM5.8976 4.424L7.00475 5.24619L7.00507 5.24576L5.8976 4.424ZM5.11154 6.67875L6.44186 7.04212L6.44231 7.04044L5.11154 6.67875ZM4.62335 8.466L3.29304 8.10263L2.74503 10.1089L4.80639 9.83285L4.62335 8.466ZM22.329 8.466L22.1458 9.83283L24.2054 10.1089L23.6596 8.10384L22.329 8.466ZM21.8422 6.67737L23.1728 6.31521L23.1727 6.31452L21.8422 6.67737ZM21.0561 4.42262L19.9487 5.24438L19.949 5.24481L21.0561 4.42262ZM19.997 3.61312L20.4993 2.32878L20.4991 2.32871L19.997 3.61312ZM18.4139 3.45039L18.4285 2.07141L17.5473 2.0621L17.1686 2.85779L18.4139 3.45039ZM16.235 4.82668V6.20573L16.2351 6.20573L16.235 4.82668ZM10.7188 4.82668L10.7186 6.20573H10.7188V4.82668ZM2.54099 11.5371L3.6261 12.3882L3.62872 12.3849L2.54099 11.5371ZM2.11072 13.9615L3.48272 13.8223L3.48272 13.8222L2.11072 13.9615ZM3.26085 19.3398L1.92279 19.6736L1.92326 19.6754L3.26085 19.3398ZM4.2124 22.7185L5.50192 22.2297L5.5001 22.225L4.2124 22.7185ZM5.14601 24.1665L4.29733 25.2535L4.29791 25.2539L5.14601 24.1665ZM6.77743 24.7209L6.61267 26.0901L6.61357 26.0902L6.77743 24.7209ZM20.1791 24.7209L20.0166 23.3514L20.0149 23.3516L20.1791 24.7209ZM21.8105 24.1665L22.6586 25.2539L22.6592 25.2535L21.8105 24.1665ZM22.7455 22.7185L24.0334 23.2114L24.0347 23.2081L22.7455 22.7185ZM24.8444 13.9615L23.4725 13.8207L23.4722 13.8237L24.8444 13.9615ZM22.1663 10.5304L22.364 9.16564L22.3629 9.16548L22.1663 10.5304ZM9.78297 1.97031C9.94944 1.61955 10.3073 1.37905 10.7188 1.37905V-1.37905C9.20232 -1.37905 7.89704 -0.488725 7.29123 0.787791L9.78297 1.97031ZM10.7188 1.37905H16.235V-1.37905H10.7188V1.37905ZM16.235 1.37905C16.6443 1.37905 17.0034 1.61897 17.1716 1.97203L19.6617 0.786069C19.0548 -0.488151 17.7508 -1.37905 16.235 -1.37905V1.37905ZM18.4045 2.75805C19.3526 2.76638 19.8537 2.81694 20.2481 2.97105L21.2519 0.40211C20.3334 0.0432124 19.3644 0.0082729 18.4287 5.33284e-05L18.4045 2.75805ZM20.2476 2.97087C20.7901 3.18308 21.2619 3.54372 21.6091 4.01153L23.824 2.36797C23.1683 1.48433 22.2771 0.803127 21.2524 0.402289L20.2476 2.97087ZM21.6103 4.01322C21.9278 4.43967 22.1071 5.02489 22.456 6.30717L25.1173 5.58302C24.8126 4.46298 24.5175 3.29957 23.8227 2.36627L21.6103 4.01322ZM22.456 6.30712L22.507 6.49467L25.1684 5.77061L25.1173 5.58306L22.456 6.30712ZM22.5071 6.49493L23.3207 9.48333L25.9819 8.75877L25.1683 5.77036L22.5071 6.49493ZM24.0301 10.3523C24.3918 10.5347 24.7088 10.7946 24.9587 11.1135L27.1296 9.41231C26.6299 8.77459 25.9959 8.25478 25.2725 7.88983L24.0301 10.3523ZM24.957 11.1114C25.4991 11.8059 25.6657 12.6888 25.5299 14.0324L28.274 14.3099C28.4415 12.6526 28.3048 10.9181 27.1313 9.41446L24.957 11.1114ZM25.53 14.0308C25.3935 15.3659 24.9669 17.0884 24.3835 19.4234L27.0594 20.092C27.6234 17.8347 28.1125 15.8889 28.2738 14.3114L25.53 14.0308ZM24.3859 19.4142L24.3486 19.559L27.0198 20.2459L27.0571 20.1011L24.3859 19.4142ZM24.3463 19.5683C23.9764 21.0492 23.7017 22.1377 23.3881 22.9644L25.9669 23.9426C26.3511 22.9297 26.6667 21.66 27.0222 20.2366L24.3463 19.5683ZM23.3893 22.9612C23.0713 23.7933 22.7268 24.3245 22.2337 24.7093L23.9302 26.8838C24.9679 26.0743 25.5501 25.0334 25.9657 23.9459L23.3893 22.9612ZM22.2327 24.71C21.7416 25.0939 21.1425 25.2988 20.2564 25.4067L20.5899 28.1446C21.742 28.0043 22.8944 27.6935 23.9312 26.8831L22.2327 24.71ZM20.2609 25.4062C19.3823 25.5103 18.2608 25.5125 16.7342 25.5125V28.2706C18.2001 28.2706 19.5085 28.2727 20.5854 28.1451L20.2609 25.4062ZM16.7342 25.5125H10.2195V28.2706H16.7342V25.5125ZM10.2195 25.5125C8.6924 25.5125 7.57088 25.5102 6.69497 25.4051L6.3662 28.1435C7.44302 28.2728 8.75414 28.2706 10.2195 28.2706V25.5125ZM6.69343 25.4049C5.81117 25.3 5.21323 25.0946 4.71989 24.7088L3.02089 26.8815C4.0583 27.6927 5.209 28.0059 6.36773 28.1437L6.69343 25.4049ZM4.7184 24.7077C4.2271 24.3246 3.88256 23.7937 3.56439 22.9612L0.988028 23.9459C1.40351 25.033 1.9857 26.0743 3.02238 26.8827L4.7184 24.7077ZM3.56498 22.9628C3.25066 22.1374 2.97779 21.0511 2.60745 19.5683L-0.0684524 20.2366C0.286588 21.6582 0.601199 22.93 0.987439 23.9443L3.56498 22.9628ZM2.6051 19.559L2.56787 19.4142L-0.103337 20.1011L-0.0661026 20.2459L2.6051 19.559ZM2.57019 19.4234C1.98647 17.0871 1.55898 15.3661 1.42381 14.0334L-1.32022 14.3117C-1.16027 15.8888 -0.669311 17.836 -0.105659 20.092L2.57019 19.4234ZM1.42388 14.034C1.28798 12.6874 1.45463 11.8053 1.99601 11.1105L-0.179635 9.4153C-1.35104 10.9187 -1.48777 12.6513 -1.32029 14.311L1.42388 14.034ZM1.99464 11.1123C2.25285 10.782 2.55938 10.5374 2.92787 10.3494L1.67419 7.8927C0.972538 8.25075 0.34407 8.7454 -0.178266 9.41355L1.99464 11.1123ZM3.63164 9.48333L4.44529 6.49493L1.78406 5.77036L0.970415 8.75877L3.63164 9.48333ZM4.44285 6.50375L4.49525 6.3162L1.83889 5.57398L1.78649 5.76153L4.44285 6.50375ZM4.49775 6.30717C4.84653 5.02536 5.02597 4.43914 5.34421 4.01077L3.13022 2.36596C2.43624 3.3001 2.14129 4.46251 1.8364 5.58302L4.49775 6.30717ZM5.34423 4.01075C5.69149 3.54329 6.16329 3.18299 6.70568 2.97105L5.70182 0.402115C4.67731 0.802459 3.78614 1.48302 3.1302 2.36599L5.34423 4.01075ZM6.70566 2.97105C7.10054 2.81675 7.60171 2.76498 8.54718 2.75807L8.52702 3.69627e-05C7.58595 0.00691615 6.61981 0.0434023 5.70183 0.40211L6.70566 2.97105ZM8.5239 2.07279C7.6553 2.08198 7.03203 2.10438 6.45462 2.33009L7.45879 4.8989C7.46158 4.89781 7.49888 4.88042 7.65797 4.86431C7.83445 4.84644 8.10026 4.83553 8.55306 4.83074L8.5239 2.07279ZM6.45444 2.33016C5.79124 2.58952 5.21446 3.03037 4.79013 3.60224L7.00507 5.24576C7.1208 5.08979 7.2781 4.96956 7.45897 4.89883L6.45444 2.33016ZM4.79044 3.60181C4.54938 3.92642 4.39731 4.27149 4.259 4.67492C4.12563 5.06395 3.97813 5.59088 3.78076 6.31706L6.44231 7.04044C6.64487 6.29517 6.76904 5.85814 6.86804 5.56937C6.96211 5.29499 7.0031 5.24841 7.00475 5.24619L4.79044 3.60181ZM3.78122 6.31537L3.29304 8.10263L5.95367 8.82937L6.44185 7.04212L3.78122 6.31537ZM4.80639 9.83285C6.12552 9.6562 7.86596 9.65336 10.1975 9.65336V6.89526C7.93951 6.89526 5.9841 6.89242 4.44032 7.09915L4.80639 9.83285ZM10.1975 9.65336H16.7549V6.89526H10.1975V9.65336ZM16.7549 9.65336C19.0879 9.65336 20.8282 9.65621 22.1458 9.83283L22.5122 7.09917C20.9697 6.89241 19.0141 6.89526 16.7549 6.89526V9.65336ZM23.6596 8.10384L23.1728 6.31521L20.5115 7.03953L20.9984 8.82816L23.6596 8.10384ZM23.1727 6.31452C22.9748 5.58902 22.8273 5.06241 22.6944 4.67413C22.5567 4.2717 22.405 3.92586 22.1633 3.60043L19.949 5.24481C19.95 5.24622 19.9907 5.29203 20.085 5.5674C20.1841 5.85692 20.3083 6.29427 20.5117 7.04022L23.1727 6.31452ZM22.1636 3.60086C21.7393 3.02899 21.1625 2.58814 20.4993 2.32878L19.4948 4.89745C19.6756 4.96818 19.8329 5.08841 19.9487 5.24438L22.1636 3.60086ZM20.4991 2.32871C19.9216 2.10295 19.2967 2.08059 18.4285 2.07141L18.3993 4.82936C18.8521 4.83415 19.1183 4.84506 19.2953 4.86295C19.4551 4.87912 19.4925 4.89659 19.4949 4.89752L20.4991 2.32871ZM17.1686 2.85779C17.0846 3.03431 16.9523 3.1834 16.7871 3.28779L18.26 5.61967C18.866 5.23689 19.3511 4.69021 19.6591 4.04299L17.1686 2.85779ZM16.7871 3.28779C16.6218 3.39219 16.4303 3.44761 16.2348 3.44763L16.2351 6.20573C16.9519 6.20566 17.654 6.00245 18.26 5.61967L16.7871 3.28779ZM16.235 3.44763H10.7188V6.20573H16.235V3.44763ZM10.7189 3.44763C10.5234 3.44761 10.332 3.39219 10.1667 3.28779L8.69376 5.61967C9.29976 6.00245 10.0018 6.20566 10.7186 6.20573L10.7189 3.44763ZM10.1667 3.28779C10.0014 3.1834 9.8691 3.03431 9.7851 2.85779L7.29463 4.04299C7.60263 4.69021 8.08775 5.23689 8.69376 5.61967L10.1667 3.28779ZM10.7188 0.689526C10.2616 0.689526 9.82312 0.871142 9.49984 1.19442L11.4501 3.14469C11.2561 3.33866 10.9931 3.44763 10.7188 3.44763V0.689526ZM9.49984 1.19442C9.17656 1.5177 8.99495 1.95616 8.99495 2.41334H11.7531C11.7531 2.68765 11.6441 2.95073 11.4501 3.14469L9.49984 1.19442ZM8.99495 2.41334C8.99495 2.87052 9.17656 3.30898 9.49984 3.63226L11.4501 1.68199C11.6441 1.87596 11.7531 2.13903 11.7531 2.41334H8.99495ZM9.49984 3.63226C9.82312 3.95554 10.2616 4.13716 10.7188 4.13716V1.37905C10.9931 1.37905 11.2561 1.48802 11.4501 1.68199L9.49984 3.63226ZM10.7188 4.13716H16.235V1.37905H10.7188V4.13716ZM16.235 4.13716C16.6922 4.13716 17.1306 3.95554 17.4539 3.63226L15.5036 1.68199C15.6976 1.48802 15.9607 1.37905 16.235 1.37905V4.13716ZM17.4539 3.63226C17.7772 3.30898 17.9588 2.87052 17.9588 2.41334H15.2007C15.2007 2.13903 15.3096 1.87596 15.5036 1.68199L17.4539 3.63226ZM17.9588 2.41334C17.9588 1.95616 17.7772 1.5177 17.4539 1.19442L15.5036 3.14469C15.3096 2.95073 15.2007 2.68765 15.2007 2.41334H17.9588ZM17.4539 1.19442C17.1306 0.871142 16.6922 0.689526 16.235 0.689526V3.44763C15.9607 3.44763 15.6976 3.33866 15.5036 3.14469L17.4539 1.19442ZM16.235 0.689526H10.7188V3.44763H16.235V0.689526ZM4.59087 9.16567C3.17592 9.37092 2.15248 9.79222 1.45325 10.6894L3.62872 12.3849C3.699 12.2947 3.89189 12.054 4.98681 11.8952L4.59087 9.16567ZM1.45587 10.6861C0.752409 11.583 0.594345 12.6788 0.738722 14.1008L3.48272 13.8222C3.37059 12.7178 3.55729 12.4759 3.6261 12.3882L1.45587 10.6861ZM0.738717 14.1008C0.882193 15.5144 1.33538 17.3185 1.92279 19.6736L4.59891 19.0061C3.9893 16.562 3.60127 14.9902 3.48272 13.8223L0.738717 14.1008ZM1.92326 19.6754C2.29738 21.1665 2.58429 22.3239 2.92469 23.212L5.5001 22.225C5.23372 21.5299 4.99108 20.5691 4.59844 19.0042L1.92326 19.6754ZM2.92288 23.2073C3.2627 24.1038 3.66774 24.7619 4.29733 25.2535L5.99469 23.0795C5.90719 23.0112 5.74129 22.8612 5.50191 22.2297L2.92288 23.2073ZM4.29791 25.2539C4.92676 25.7444 5.66288 25.9758 6.61267 26.0901L6.9422 23.3517C6.2647 23.2702 6.07961 23.1458 5.99412 23.0791L4.29791 25.2539ZM6.61357 26.0902C7.55587 26.2029 8.7428 26.202 10.2857 26.202V23.4439C8.67341 23.4439 7.68144 23.4402 6.9413 23.3516L6.61357 26.0902ZM10.2857 26.202H16.6707V23.4439H10.2857V26.202ZM16.6707 26.202C18.2121 26.202 19.4021 26.2029 20.3432 26.0901L20.0149 23.3516C19.2764 23.4402 18.2819 23.4439 16.6707 23.4439V26.202ZM20.3415 26.0903C21.2953 25.9772 22.0308 25.7436 22.6586 25.2539L20.9624 23.0791C20.8758 23.1466 20.6901 23.2715 20.0166 23.3514L20.3415 26.0903ZM22.6592 25.2535C23.2894 24.7614 23.6923 24.103 24.0334 23.2114L21.4575 22.2256C21.214 22.862 21.0486 23.0117 20.9618 23.0795L22.6592 25.2535ZM24.0347 23.2081C24.3711 22.3223 24.6585 21.1688 25.0321 19.6743L22.3564 19.0054C21.966 20.5668 21.7211 21.5316 21.4563 22.2289L24.0347 23.2081ZM25.0321 19.6743C25.621 17.319 26.0745 15.5142 26.2165 14.0993L23.4722 13.8237C23.3551 14.9905 22.9673 16.5616 22.3564 19.0054L25.0321 19.6743ZM26.2162 14.1023C26.3624 12.6776 26.2021 11.5823 25.5021 10.6866L23.3289 12.385C23.3984 12.4739 23.5856 12.719 23.4725 13.8207L26.2162 14.1023ZM25.5021 10.6866C24.8029 9.79189 23.7802 9.37084 22.364 9.16564L21.9685 11.8952C23.0649 12.0541 23.2586 12.295 23.3289 12.385L25.5021 10.6866ZM22.3629 9.16548C20.9588 8.96317 19.0995 8.96384 16.6707 8.96384V11.7219C19.1873 11.7219 20.8087 11.7281 21.9696 11.8954L22.3629 9.16548ZM16.6707 8.96384H10.2857V11.7219H16.6707V8.96384ZM10.2857 8.96384C7.85702 8.96384 5.99768 8.96317 4.59355 9.16548L4.98689 11.8954C6.14779 11.7281 7.76918 11.7219 10.2857 11.7219V8.96384Z" fill="#242424" mask="url(#path-1-inside-1_1809_25)"/>
</svg>
