<svg width="17" height="17" viewBox="0 0 17 17" fill="none" xmlns="http://www.w3.org/2000/svg">
<path d="M15.0235 12.4237H13.6799C13.5881 12.4237 13.5021 12.4639 13.4448 12.5346C13.311 12.697 13.1676 12.8538 13.0166 13.0029C12.3991 13.621 11.6676 14.1137 10.8625 14.4536C10.0286 14.8058 9.13216 14.9865 8.22682 14.9849C7.31129 14.9849 6.42443 14.8052 5.59108 14.4536C4.78607 14.1137 4.05456 13.621 3.43701 13.0029C2.81835 12.3868 2.32503 11.6565 1.98439 10.8526C1.6308 10.0193 1.45304 9.13431 1.45304 8.21878C1.45304 7.30325 1.63271 6.4183 1.98439 5.58495C2.32461 4.78028 2.81391 4.05589 3.43701 3.4347C4.0601 2.81352 4.7845 2.32421 5.59108 1.984C6.42443 1.63231 7.31129 1.45264 8.22682 1.45264C9.14235 1.45264 10.0292 1.6304 10.8625 1.984C11.6691 2.32421 12.3935 2.81352 13.0166 3.4347C13.1676 3.5857 13.3091 3.74243 13.4448 3.90298C13.5021 3.9737 13.59 4.01384 13.6799 4.01384H15.0235C15.1439 4.01384 15.2185 3.88004 15.1516 3.77874C13.6856 1.50043 11.1206 -0.00761641 8.20579 2.89351e-05C3.62623 0.011497 -0.0454469 3.72905 0.000425185 8.30288C0.0462973 12.8041 3.71224 16.4375 8.22682 16.4375C11.134 16.4375 13.6875 14.9314 15.1516 12.6588C15.2166 12.5575 15.1439 12.4237 15.0235 12.4237ZM16.7227 8.09836L14.0105 5.95767C13.9092 5.87739 13.762 5.95002 13.762 6.07808V7.53069H7.76045C7.67635 7.53069 7.60754 7.5995 7.60754 7.6836V8.75395C7.60754 8.83805 7.67635 8.90686 7.76045 8.90686H13.762V10.3595C13.762 10.4875 13.9111 10.5602 14.0105 10.4799L16.7227 8.33919C16.741 8.32489 16.7558 8.30661 16.7659 8.28575C16.7761 8.26489 16.7814 8.24198 16.7814 8.21878C16.7814 8.19557 16.7761 8.17267 16.7659 8.1518C16.7558 8.13094 16.741 8.11267 16.7227 8.09836Z" fill="black"/>
</svg>
