<svg width="28" height="32" viewBox="0 0 28 32" fill="none" xmlns="http://www.w3.org/2000/svg">
<path d="M14.8235 2.47059C14.8235 2.25217 14.7368 2.04271 14.5823 1.88827C14.4279 1.73382 14.2184 1.64706 14 1.64706C13.7816 1.64706 13.5721 1.73382 13.4177 1.88827C13.2632 2.04271 13.1765 2.25217 13.1765 2.47059V4.99059C9.47059 5.40235 6.58824 8.53176 6.58824 12.3529V22.0871L3.96941 24.7059H24.0306L21.4118 22.0871V12.3529C21.4118 8.53176 18.5294 5.40235 14.8235 4.99059V2.47059ZM14 0C14.6552 0 15.2836 0.260293 15.747 0.723619C16.2103 1.18694 16.4706 1.81535 16.4706 2.47059V3.64C20.2753 4.71059 23.0588 8.23529 23.0588 12.3529V21.4118L28 26.3529H0L4.94118 21.4118V12.3529C4.94118 8.23529 7.72471 4.71059 11.5294 3.64V2.47059C11.5294 1.81535 11.7897 1.18694 12.253 0.723619C12.7164 0.260293 13.3448 0 14 0ZM14 31.2941C13.0508 31.2943 12.1306 30.9665 11.3953 30.3663C10.6599 29.766 10.1546 28.9301 9.96471 28H11.6776C11.847 28.4806 12.1614 28.8969 12.5773 29.1913C12.9933 29.4858 13.4904 29.6439 14 29.6439C14.5096 29.6439 15.0067 29.4858 15.4227 29.1913C15.8386 28.8969 16.153 28.4806 16.3224 28H18.0353C17.8454 28.9301 17.3401 29.766 16.6047 30.3663C15.8694 30.9665 14.9492 31.2943 14 31.2941Z" fill="black"/>
</svg>
