<svg width="26" height="26" viewBox="0 0 26 26" fill="none" xmlns="http://www.w3.org/2000/svg">
<path fill-rule="evenodd" clip-rule="evenodd" d="M16.367 17.9492C14.3549 19.5569 11.8035 20.3331 9.23693 20.1185C6.67035 19.9038 4.28339 18.7146 2.56628 16.7949C0.849175 14.8753 -0.0677247 12.3711 0.00390138 9.79654C0.0755274 7.222 1.13024 4.7726 2.95142 2.95142C4.7726 1.13024 7.22199 0.0755274 9.79654 0.00390138C12.3711 -0.0677247 14.8753 0.849175 16.7949 2.56628C18.7146 4.28339 19.9038 6.67035 20.1185 9.23693C20.3331 11.8035 19.5569 14.3549 17.9492 16.367L25.6452 24.0615C25.7552 24.164 25.8434 24.2876 25.9046 24.4249C25.9658 24.5622 25.9987 24.7105 26.0013 24.8608C26.004 25.0111 25.9763 25.1604 25.92 25.2998C25.8637 25.4392 25.7799 25.5658 25.6736 25.6721C25.5673 25.7784 25.4407 25.8622 25.3013 25.9185C25.1619 25.9748 25.0126 26.0025 24.8623 25.9998C24.712 25.9972 24.5637 25.9643 24.4264 25.9031C24.2891 25.8419 24.1655 25.7537 24.063 25.6437L16.367 17.9492ZM4.53786 15.6177C3.44233 14.522 2.69618 13.1262 2.39371 11.6066C2.09124 10.087 2.24603 8.5119 2.83851 7.08026C3.431 5.64862 4.43458 4.42475 5.72243 3.56332C7.01028 2.70189 8.5246 2.24156 10.074 2.24052C11.6234 2.23948 13.1383 2.69776 14.4273 3.55746C15.7163 4.41716 16.7216 5.63968 17.316 7.07052C17.9104 8.50136 18.0673 10.0763 17.7669 11.5963C17.4664 13.1163 16.7222 14.5131 15.6281 15.6102L15.6207 15.6177L15.6132 15.6236C14.1431 17.0903 12.1509 17.9135 10.0743 17.9124C7.99766 17.9113 6.00638 17.086 4.53786 15.6177Z" fill="black"/>
</svg>
