<svg width="19" height="20" viewBox="0 0 19 20" fill="none" xmlns="http://www.w3.org/2000/svg">
<path d="M12.6712 5.41501C12.8063 5.53378 12.8888 5.70131 12.9005 5.88082C12.9122 6.06034 12.8522 6.23716 12.7337 6.37248L7.98027 11.8049C7.91911 11.875 7.8442 11.9318 7.7602 11.9717C7.67619 12.0116 7.58488 12.0339 7.49193 12.0371C7.39897 12.0402 7.30635 12.0243 7.21982 11.9902C7.13328 11.9561 7.05466 11.9046 6.98885 11.8389L4.27262 9.12266C4.20949 9.05952 4.15941 8.98457 4.12524 8.90208C4.09107 8.81959 4.07348 8.73118 4.07348 8.64189C4.07348 8.5526 4.09107 8.46419 4.12524 8.3817C4.15941 8.2992 4.20949 8.22425 4.27262 8.16112C4.33576 8.09798 4.41071 8.0479 4.4932 8.01373C4.57569 7.97956 4.66411 7.96197 4.7534 7.96197C4.84268 7.96197 4.9311 7.97956 5.01359 8.01373C5.09608 8.0479 5.17103 8.09798 5.23417 8.16112L7.43703 10.364L11.7124 5.47884C11.8309 5.34353 11.9984 5.26081 12.1779 5.24884C12.3574 5.23688 12.5357 5.29664 12.6712 5.41501ZM0 4.56755C0 3.48697 0.42926 2.45064 1.19335 1.68656C1.95743 0.922469 2.99376 0.49321 4.07434 0.49321H12.223C13.3036 0.49321 14.3399 0.922469 15.104 1.68656C15.8681 2.45064 16.2974 3.48697 16.2974 4.56755V12.7162C16.2974 13.7968 15.8681 14.8331 15.104 15.5972C14.3399 16.3613 13.3036 16.7906 12.223 16.7906H4.07434C2.99376 16.7906 1.95743 16.3613 1.19335 15.5972C0.42926 14.8331 0 13.7968 0 12.7162V4.56755ZM4.07434 1.85132C3.35395 1.85132 2.66307 2.1375 2.15368 2.64689C1.64429 3.15628 1.35811 3.84716 1.35811 4.56755V12.7162C1.35811 13.4366 1.64429 14.1275 2.15368 14.6369C2.66307 15.1463 3.35395 15.4325 4.07434 15.4325H12.223C12.9434 15.4325 13.6343 15.1463 14.1437 14.6369C14.6531 14.1275 14.9392 13.4366 14.9392 12.7162V4.56755C14.9392 3.84716 14.6531 3.15628 14.1437 2.64689C13.6343 2.1375 12.9434 1.85132 12.223 1.85132H4.07434ZM3.74024 18.1487C4.48721 18.9826 5.56962 19.5068 6.77698 19.5068H12.8885C13.6911 19.5068 14.4858 19.3487 15.2273 19.0416C15.9687 18.7344 16.6425 18.2843 17.21 17.7168C17.7775 17.1493 18.2277 16.4755 18.5348 15.7341C18.8419 14.9926 19 14.1979 19 13.3953V7.28377C19 6.0832 18.4798 5.00214 17.6541 4.2579V11.3581C17.6541 11.4939 17.6496 11.6293 17.6405 11.7642V13.3939C17.6405 14.6546 17.1397 15.8636 16.2483 16.7551C15.3569 17.6465 14.1478 18.1473 12.8871 18.1473H10.9396L10.8635 18.1487H3.74024Z" fill="black"/>
</svg>
