<svg width="26" height="31" viewBox="0 0 26 31" fill="none" xmlns="http://www.w3.org/2000/svg">
<path d="M13.0323 13.0324C16.0788 13.0324 18.5485 10.5627 18.5485 7.51621C18.5485 4.46969 16.0788 2 13.0323 2C9.9858 2 7.51611 4.46969 7.51611 7.51621C7.51611 10.5627 9.9858 13.0324 13.0323 13.0324Z" stroke="#242424" stroke-width="2.06858"/>
<path d="M24.0621 24.0648C24.0639 23.8387 24.0648 23.6088 24.0648 23.3753C24.0648 19.9484 19.1251 17.1696 13.0324 17.1696C6.93976 17.1696 2 19.9484 2 23.3753C2 26.8022 2 29.581 13.0324 29.581C16.1091 29.581 18.328 29.3645 19.9277 28.9784" stroke="#242424" stroke-width="2.06858" stroke-linecap="round"/>
</svg>
