<svg width="23" height="21" viewBox="0 0 23 21" fill="none" xmlns="http://www.w3.org/2000/svg">
<path d="M22 19.7917C22 17.3533 20.0517 13.879 17.3333 13.1102M15 19.7917C15 16.6988 11.8663 12.7917 8 12.7917C4.13367 12.7917 1 16.6988 1 19.7917M15 8.70834C15.9283 8.70834 16.8185 8.3396 17.4749 7.68322C18.1313 7.02684 18.5 6.1366 18.5 5.20834C18.5 4.28009 18.1313 3.38985 17.4749 2.73347C16.8185 2.07709 15.9283 1.70834 15 1.70834M11.5 5.20834C11.5 6.1366 11.1313 7.02684 10.4749 7.68322C9.8185 8.3396 8.92826 8.70834 8 8.70834C7.07174 8.70834 6.1815 8.3396 5.52513 7.68322C4.86875 7.02684 4.5 6.1366 4.5 5.20834C4.5 4.28009 4.86875 3.38985 5.52513 2.73347C6.1815 2.07709 7.07174 1.70834 8 1.70834C8.92826 1.70834 9.8185 2.07709 10.4749 2.73347C11.1313 3.38985 11.5 4.28009 11.5 5.20834Z" stroke="black" stroke-width="1.75" stroke-linecap="round" stroke-linejoin="round"/>
</svg>
